<?xml version="1.0" encoding="utf-8"?>
<!-- Generator: Adobe Illustrator 23.0.1, SVG Export Plug-In . SVG Version: 6.00 Build 0)  -->
<svg version="1.1" id="Layer_1" xmlns="http://www.w3.org/2000/svg" xmlns:xlink="http://www.w3.org/1999/xlink" x="0px" y="0px"
	 viewBox="0 0 123.02 42.42" style="enable-background:new 0 0 123.02 42.42;" xml:space="preserve">
<style type="text/css">
	.st0{fill:#FFFFFF;}
</style>
<path class="st0" d="M48.92,29.04h2.6V16.19c-0.41,0.13-0.85,0.2-1.3,0.2c-0.45,0-0.89-0.07-1.3-0.2V29.04z M34.35,29.04h2.6v-6.35
	c0-0.67,0.05-1.29,0.21-1.82c0.56-1.95,2.22-3.32,4.29-3.32c2.17,0,2.57,1.5,2.57,3.4v8.09h2.6v-8.68c0-3.45-1.47-5.2-4.66-5.2
	c-2.95,0-4.55,1.93-5.09,3.11h-0.05c0,0,0.05-0.46,0.05-0.99v-1.8h-2.52V29.04z M16.77,22.34c0,4.21,3.03,7.02,7.45,7.02
	c4.42,0,7.45-2.81,7.45-7.02V10.13h-2.65v12.16c0,2.95-1.9,4.63-4.82,4.63c-2.89,0-4.77-1.69-4.77-4.58V10.13h-2.65V22.34z
	 M96.61,22.24c0-2.38,1.31-3.4,2.71-3.4c1.61,0,2.71,1.34,2.71,3.4c0,2.12-1.26,3.29-2.71,3.29C97.49,25.53,96.61,23.9,96.61,22.24
	 M92.11,34.4h4.63v-5.17c0-0.7-0.05-1.18-0.05-1.18h0.05c0,0,1.26,1.31,3.51,1.31c3.67,0,6.43-2.84,6.43-7.2
	c0-4.29-2.46-7.23-6.21-7.23c-2.92,0-4.18,1.9-4.18,1.9h-0.05c0,0,0.05-0.43,0.05-0.88v-0.7h-4.18V34.4z M81.74,24.68
	c0-1.15,1.69-1.58,3.16-1.58h0.43v0.29c0,1.12-1.07,2.44-2.28,2.44C82.14,25.83,81.74,25.32,81.74,24.68z M77.08,24.92
	c0,2.73,2.12,4.45,4.69,4.45c2.89,0,3.91-2.01,3.91-2.01h0.05c0,0-0.05,0.4-0.05,0.86v0.83h4.23v-8.49c0-3.51-2.33-5.62-6.21-5.62
	c-3.4,0-5.78,1.79-5.78,1.79l1.61,3.27c0,0,1.98-1.31,3.72-1.31c1.15,0,2.04,0.38,2.04,1.53v0.24h-0.19
	C82.94,20.44,77.08,20.9,77.08,24.92z M54.55,29.04h4.63v-5.71c0-0.59,0.03-1.21,0.13-1.71c0.32-1.47,1.07-2.49,2.52-2.49
	c0.88,0,1.07,0.72,1.07,1.74v8.17h4.63v-5.71c0-0.56,0-1.12,0.11-1.61c0.29-1.53,1.07-2.6,2.54-2.6c0.88,0,1.07,0.72,1.07,1.74v8.17
	h4.63v-8.95c0-3.8-1.96-5.17-4.47-5.17c-2.06,0-3.7,1.18-4.42,2.33h-0.05c-0.72-1.55-2.12-2.33-3.86-2.33
	c-2.17,0-3.46,1.42-4.1,2.38h-0.05c0,0,0.05-0.4,0.05-0.86v-1.21h-4.45V29.04z M49.92,15.51c-1.43-0.15-2.54-1.36-2.54-2.83
	c0-0.14,0.01-0.27,0.03-0.41l0.73,0.19c-0.01,0.07-0.01,0.14-0.01,0.22c0,1.05,0.78,1.92,1.79,2.07V15.51z M53.03,12.27
	c0.02,0.14,0.03,0.28,0.03,0.42c0,1.47-1.12,2.68-2.55,2.83v-0.76c1.01-0.14,1.79-1.02,1.79-2.07c0-0.08,0-0.15-0.01-0.23
	L53.03,12.27z M50.22,9.85c1.22,0,2.26,0.77,2.66,1.85l-0.73,0.19c-0.31-0.76-1.06-1.29-1.93-1.29c-0.87,0-1.62,0.54-1.93,1.3
	l-0.73-0.19C47.95,10.62,49,9.85,50.22,9.85z M50.22,11.63c0.59,0,1.06,0.48,1.06,1.06c0,0.59-0.47,1.06-1.06,1.06
	c-0.59,0-1.06-0.47-1.06-1.06C49.16,12.1,49.63,11.63,50.22,11.63"/>
</svg>
